<?xml version="1.0" encoding="UTF-8"?>
<svg id="Layer_2" data-name="Layer 2" xmlns="http://www.w3.org/2000/svg" viewBox="0 0 96.33 222.01">
  <defs>
    <style>
      .cls-1 {
        stroke-width: 0px;
      }
    </style>
  </defs>
  <g id="Layer_1-2" data-name="Layer 1">
    <g>
      <path class="cls-1" d="M70.77,122.77H25.56c-.79,0-1.43-.64-1.43-1.43V27.43c0-.79.64-1.43,1.43-1.43h45.22c.79,0,1.43.64,1.43,1.43v93.91c0,.79-.64,1.43-1.43,1.43ZM26.99,119.91h42.36V28.86H26.99v91.05Z"/>
      <path class="cls-1" d="M40.84,49.3h-15.29c-.79,0-1.43-.64-1.43-1.43s.64-1.43,1.43-1.43h15.29c.79,0,1.43.64,1.43,1.43s-.64,1.43-1.43,1.43Z"/>
      <path class="cls-1" d="M40.84,75.82h-15.29c-.79,0-1.43-.64-1.43-1.43s.64-1.43,1.43-1.43h15.29c.79,0,1.43.64,1.43,1.43s-.64,1.43-1.43,1.43Z"/>
      <path class="cls-1" d="M40.84,102.33h-15.29c-.79,0-1.43-.64-1.43-1.43s.64-1.43,1.43-1.43h15.29c.79,0,1.43.64,1.43,1.43s-.64,1.43-1.43,1.43Z"/>
      <path class="cls-1" d="M70.77,49.3h-15.29c-.79,0-1.43-.64-1.43-1.43s.64-1.43,1.43-1.43h15.29c.79,0,1.43.64,1.43,1.43s-.64,1.43-1.43,1.43Z"/>
      <path class="cls-1" d="M70.77,75.82h-15.29c-.79,0-1.43-.64-1.43-1.43s.64-1.43,1.43-1.43h15.29c.79,0,1.43.64,1.43,1.43s-.64,1.43-1.43,1.43Z"/>
      <path class="cls-1" d="M70.77,102.33h-15.29c-.79,0-1.43-.64-1.43-1.43s.64-1.43,1.43-1.43h15.29c.79,0,1.43.64,1.43,1.43s-.64,1.43-1.43,1.43Z"/>
      <path class="cls-1" d="M57.73,28.86h-19.13c-.79,0-1.43-.64-1.43-1.43V11c0-6.06,4.93-11,10.99-11s11,4.93,11,11v16.44c0,.79-.64,1.43-1.43,1.43ZM40.03,26h16.27v-15.01c0-4.49-3.65-8.13-8.14-8.13s-8.13,3.65-8.13,8.13v15.01Z"/>
      <path class="cls-1" d="M94.9,152.63H1.43c-.79,0-1.43-.64-1.43-1.43v-29.86c0-.79.64-1.43,1.43-1.43h93.47c.79,0,1.43.64,1.43,1.43v29.86c0,.79-.64,1.43-1.43,1.43ZM2.86,149.77h90.61v-27H2.86v27Z"/>
      <path class="cls-1" d="M84.87,159.15H11.46c-.79,0-1.43-.64-1.43-1.43v-6.52c0-.79.64-1.43,1.43-1.43h73.41c.79,0,1.43.64,1.43,1.43v6.52c0,.79-.64,1.43-1.43,1.43ZM12.89,156.29h70.55v-3.66H12.89v3.66Z"/>
      <g>
        <path class="cls-1" d="M48.44,202.78h-27.23c-.79,0-1.43-.64-1.43-1.43v-16.34c0-.51.28-.99.72-1.25.45-.25,1-.25,1.44.02l27.23,16.34c.55.33.81.99.64,1.61-.17.62-.74,1.05-1.38,1.05ZM22.64,199.91h20.63l-20.63-12.38v12.38Z"/>
        <path class="cls-1" d="M72.49,202.78h-24.05c-.26,0-.51-.07-.74-.2l-27.23-16.34c-.43-.26-.69-.72-.69-1.23v-14.43c0-.51.28-.99.72-1.25.45-.25,1-.25,1.44.02l51.28,30.77c.55.33.82.99.64,1.61-.17.62-.74,1.05-1.38,1.05ZM48.83,199.91h18.49l-44.69-26.81v11.1l26.2,15.72Z"/>
        <path class="cls-1" d="M75.12,189.92c-.25,0-.51-.07-.74-.2l-51.28-30.77c-.55-.33-.81-.99-.64-1.61.17-.62.74-1.05,1.38-1.05h24.05c.26,0,.51.07.74.2l27.23,16.34c.43.26.69.72.69,1.23v14.43c0,.51-.28.99-.73,1.25-.22.12-.46.18-.71.18ZM29,159.15l44.69,26.81v-11.1l-26.2-15.72h-18.49Z"/>
        <path class="cls-1" d="M75.12,202.78h-2.63c-.26,0-.51-.07-.74-.2l-51.28-30.77c-.43-.26-.69-.72-.69-1.23v-12.85c0-.79.64-1.43,1.43-1.43h2.63c.26,0,.51.07.74.2l51.28,30.77c.43.26.69.72.69,1.23v12.85c0,.79-.64,1.43-1.43,1.43ZM72.88,199.91h.81v-10.61l-50.25-30.15h-.8v10.61l50.25,30.15Z"/>
        <path class="cls-1" d="M75.12,175.49c-.25,0-.51-.07-.74-.2l-27.23-16.34c-.55-.33-.81-.99-.64-1.61.17-.62.74-1.05,1.38-1.05h27.23c.79,0,1.43.64,1.43,1.43v16.34c0,.52-.28.99-.73,1.25-.22.12-.46.18-.71.18ZM53.06,159.15l20.63,12.38v-12.38h-20.63Z"/>
      </g>
      <path class="cls-1" d="M58.62,211.32h-18.27c-.79,0-1.43-.64-1.43-1.43v-8.55c0-.79.64-1.43,1.43-1.43h18.27c.79,0,1.43.64,1.43,1.43v8.55c0,.79-.64,1.43-1.43,1.43ZM41.78,208.46h15.41v-5.69h-15.41v5.69Z"/>
      <path class="cls-1" d="M52.81,222.01h-8.81c-.79,0-1.43-.64-1.43-1.43s.64-1.43,1.43-1.43h8.81c5.62,0,10.2-4.57,10.2-10.2v-7.61c0-.79.64-1.43,1.43-1.43s1.43.64,1.43,1.43v7.61c0,7.2-5.86,13.06-13.06,13.06Z"/>
      <path class="cls-1" d="M19.48,147.13c-.79,0-1.43-.64-1.43-1.43v-18.85c0-.79.64-1.43,1.43-1.43s1.43.64,1.43,1.43v18.85c0,.79-.64,1.43-1.43,1.43Z"/>
      <path class="cls-1" d="M49.48,147.13c-.79,0-1.43-.64-1.43-1.43v-18.85c0-.79.64-1.43,1.43-1.43s1.43.64,1.43,1.43v18.85c0,.79-.64,1.43-1.43,1.43Z"/>
      <path class="cls-1" d="M79.48,147.13c-.79,0-1.43-.64-1.43-1.43v-18.85c0-.79.64-1.43,1.43-1.43s1.43.64,1.43,1.43v18.85c0,.79-.64,1.43-1.43,1.43Z"/>
    </g>
  </g>
</svg>