<?xml version="1.0" encoding="UTF-8"?>
<svg id="Layer_2" data-name="Layer 2" xmlns="http://www.w3.org/2000/svg" viewBox="0 0 271.01 207.39">
  <defs>
    <style>
      .cls-1 {
        stroke-width: 0px;
      }
    </style>
  </defs>
  <g id="Layer_1-2" data-name="Layer 1">
    <g>
      <path class="cls-1" d="M135.5,185.12c-21.87,0-39.66-17.79-39.66-39.66s17.79-39.67,39.66-39.67,39.67,17.8,39.67,39.67-17.8,39.66-39.67,39.66ZM135.5,108.65c-20.29,0-36.8,16.51-36.8,36.81s16.51,36.8,36.8,36.8,36.81-16.51,36.81-36.8-16.51-36.81-36.81-36.81Z"/>
      <path class="cls-1" d="M135.5,207.39c-28.86,0-54.3-20.45-60.48-48.61-.96-4.39-1.45-8.87-1.45-13.32,0-32.06,24.03-58.56,55.9-61.64,3.93-.38,7.35-.42,12.09.03,23.89,2.32,44.31,18.34,52.31,40.91h12.22c6.11,0,12,2.25,16.59,6.34,5.32,4.74,8.37,11.53,8.37,18.62v15.63c0,13.76-11.2,24.96-24.96,24.96h-27.89c-11.57,11.03-26.72,17.09-42.7,17.09ZM135.5,86.38c-1.88,0-3.82.09-5.76.28-30.39,2.94-53.32,28.22-53.32,58.79,0,4.25.47,8.52,1.39,12.71,5.89,26.87,30.16,46.37,57.69,46.37,15.43,0,30.04-5.93,41.13-16.69.27-.26.62-.41,1-.41h28.46c12.18,0,22.1-9.91,22.1-22.1v-15.63c0-6.27-2.7-12.28-7.42-16.48-4.06-3.62-9.28-5.62-14.68-5.62h-13.24c-.61,0-1.16-.39-1.36-.97-7.4-22.02-27.1-37.7-50.21-39.95-2.2-.21-4.04-.31-5.79-.31Z"/>
      <path class="cls-1" d="M19.32,111.5h0c-.38,0-.74-.15-1.01-.42l-13.21-13.22c-6.8-6.8-6.8-17.87,0-24.67L59.84,18.46c3.29-3.3,7.67-5.11,12.33-5.11s9.04,1.82,12.34,5.11l13.21,13.21c.27.27.42.63.42,1.01s-.15.74-.42,1.01L20.33,111.09c-.27.27-.63.42-1.01.42ZM72.18,16.21c-3.9,0-7.56,1.52-10.31,4.27L7.12,75.22c-5.69,5.69-5.69,14.94,0,20.62l12.2,12.21L94.7,32.68l-12.2-12.2c-2.76-2.76-6.42-4.27-10.32-4.27Z"/>
      <path class="cls-1" d="M251.69,111.5c-.38,0-.74-.15-1.01-.42l-77.4-77.39c-.27-.27-.42-.63-.42-1.01s.15-.74.42-1.01l13.21-13.21c3.3-3.3,7.68-5.11,12.34-5.11s9.04,1.82,12.34,5.11l54.74,54.74c6.8,6.8,6.8,17.87,0,24.67l-13.21,13.22c-.27.27-.63.42-1.01.42ZM176.31,32.68l75.37,75.37,12.2-12.21c5.68-5.68,5.68-14.94,0-20.62l-54.74-54.74c-2.76-2.76-6.42-4.27-10.31-4.27s-7.56,1.52-10.32,4.27l-12.2,12.2Z"/>
      <path class="cls-1" d="M160.34,146.89h-49.67c-.79,0-1.43-.64-1.43-1.43s.64-1.43,1.43-1.43h49.67c.79,0,1.43.64,1.43,1.43s-.64,1.43-1.43,1.43Z"/>
      <path class="cls-1" d="M146.94,130.39h-22.87c-.79,0-1.43-.64-1.43-1.43s.64-1.43,1.43-1.43h22.87c.79,0,1.43.64,1.43,1.43s-.64,1.43-1.43,1.43Z"/>
      <path class="cls-1" d="M146.94,163.39h-22.87c-.79,0-1.43-.64-1.43-1.43s.64-1.43,1.43-1.43h22.87c.79,0,1.43.64,1.43,1.43s-.64,1.43-1.43,1.43Z"/>
      <path class="cls-1" d="M201.19,145.78c-3.54,0-6.41-2.88-6.41-6.41s2.88-6.41,6.41-6.41,6.41,2.88,6.41,6.41-2.88,6.41-6.41,6.41ZM201.19,135.82c-1.96,0-3.55,1.59-3.55,3.55s1.59,3.55,3.55,3.55,3.55-1.59,3.55-3.55-1.59-3.55-3.55-3.55Z"/>
      <path class="cls-1" d="M201.19,164.19c-3.54,0-6.41-2.87-6.41-6.41s2.88-6.41,6.41-6.41,6.41,2.88,6.41,6.41-2.88,6.41-6.41,6.41ZM201.19,154.23c-1.96,0-3.55,1.59-3.55,3.55s1.59,3.55,3.55,3.55,3.55-1.59,3.55-3.55-1.59-3.55-3.55-3.55Z"/>
      <path class="cls-1" d="M201.19,182.6c-3.54,0-6.41-2.88-6.41-6.41s2.88-6.41,6.41-6.41,6.41,2.87,6.41,6.41-2.88,6.41-6.41,6.41ZM201.19,172.64c-1.96,0-3.55,1.59-3.55,3.55s1.59,3.55,3.55,3.55,3.55-1.6,3.55-3.55-1.59-3.55-3.55-3.55Z"/>
      <g>
        <path class="cls-1" d="M135.5,80.77c-.37,0-.73-.14-1.01-.42l-36-36c-.41-.41-.53-1.03-.31-1.56.22-.53.74-.88,1.32-.88h72.02c.58,0,1.1.35,1.32.88.22.53.1,1.15-.31,1.56l-36.02,36c-.28.28-.65.42-1.01.42ZM102.95,44.77l32.55,32.55,32.56-32.55h-65.11Z"/>
        <path class="cls-1" d="M76.01,160.31c-.37,0-.73-.14-1.01-.42l-52.72-52.72c-.27-.27-.42-.63-.42-1.01s.15-.74.42-1.01L91.79,35.63c.27-.27.63-.42,1.01-.42h0c.38,0,.74.15,1.01.42l41.69,41.69,41.69-41.69c.54-.54,1.49-.54,2.02,0l69.52,69.52c.56.56.56,1.46,0,2.02l-26,26c-.54.54-1.4.56-1.96.06-4.06-3.62-9.28-5.62-14.68-5.62h-13.24c-.61,0-1.16-.39-1.36-.97-7.4-22.02-27.1-37.7-50.21-39.95-4.55-.44-7.8-.39-11.54-.03-30.39,2.94-53.32,28.22-53.32,58.79,0,4.25.47,8.52,1.39,12.71.1.48-.04.98-.39,1.32l-.41.41c-.28.28-.65.42-1.01.42ZM25.31,106.16l49.03,49.03c-.51-3.23-.77-6.49-.77-9.73,0-32.06,24.03-58.56,55.9-61.64,3.93-.38,7.35-.42,12.09.03,23.89,2.32,44.31,18.34,52.31,40.91h12.22c5.66,0,11.13,1.93,15.55,5.47l24.06-24.06-67.49-67.5-41.7,41.69c-.56.56-1.46.56-2.02,0l-41.69-41.69L25.31,106.16Z"/>
      </g>
      <path class="cls-1" d="M160.34,44.77h-49.67c-.79,0-1.43-.64-1.43-1.43V12.95c0-.79.64-1.43,1.43-1.43h49.67c.79,0,1.43.64,1.43,1.43v30.39c0,.79-.64,1.43-1.43,1.43ZM112.1,41.91h46.81V14.38h-46.81v27.53Z"/>
      <path class="cls-1" d="M152.4,14.38h-33.79c-.79,0-1.43-.64-1.43-1.43V1.43c0-.79.64-1.43,1.43-1.43h33.79c.79,0,1.43.64,1.43,1.43v11.52c0,.79-.64,1.43-1.43,1.43ZM120.04,11.52h30.93V2.86h-30.93v8.66Z"/>
    </g>
  </g>
</svg>