<?xml version="1.0" encoding="UTF-8"?>
<svg id="Layer_2" data-name="Layer 2" xmlns="http://www.w3.org/2000/svg" viewBox="0 0 243.54 320.47">
  <defs>
    <style>
      .cls-1, .cls-2 {
        stroke-width: 0px;
      }

      .cls-2 {
        fill: #f1f2f2;
      }
    </style>
  </defs>
  <g id="Layer_1-2" data-name="Layer 1">
    <g>
      <g>
        <g>
          <path class="cls-2" d="M43.61,90.85H15.75v-32.56l-14.32,14.32v23.42l12.52,12.52v50.55h.03l-.03,50.55-12.52,12.52v23.42h0v.04l16.56,16.56h23.42l16.56-16.56v-23.46l-12.53-12.53v-50.55h-.02l.02-50.55,12.53-12.52v-23.42l-14.37-14.36v32.6ZM46.14,227.13v13.61l-9.63,9.63h-13.62l-9.62-9.63v-13.61l9.62-9.63h13.62l9.63,9.63Z"/>
          <path class="cls-1" d="M41.42,263.64h-23.42c-.38,0-.74-.15-1.01-.42L.43,246.66c-.23-.23-.38-.54-.41-.86,0-.06-.01-.12-.01-.19v-23.42c0-.38.15-.74.42-1.01l12.1-12.1.03-49.74c-.01-.07-.02-.14-.02-.22v-49.96S.42,97.05.42,97.05c-.27-.27-.42-.63-.42-1.01v-23.42c0-.38.15-.74.42-1.01l14.32-14.32c.41-.41,1.02-.53,1.56-.31.53.22.88.74.88,1.32v31.12h25s0-31.17,0-31.17c0-.58.35-1.1.88-1.32.54-.21,1.15-.1,1.56.31l14.37,14.36c.27.27.42.63.42,1.01v23.42c0,.38-.15.74-.42,1.01l-12.11,12.1-.02,49.74c.01.07.02.14.02.21v49.96s12.11,12.11,12.11,12.11c.27.27.42.63.42,1.01v23.42c0,.38-.15.79-.42,1.05l-16.56,16.56c-.27.27-.63.42-1.01.42ZM18.59,260.78h22.24l15.72-15.72v-22.28l-12.11-12.11c-.27-.27-.42-.63-.42-1.01v-50.34c-.02-.07-.02-.14-.02-.21l.02-50.55c0-.38.15-.74.42-1.01l12.11-12.1v-22.24l-11.51-11.5v29.15c0,.38-.15.74-.42,1.01-.27.27-.63.42-1.01.42H15.75c-.79,0-1.43-.64-1.43-1.43v-29.1l-11.46,11.46v22.24l12.1,12.1c.27.27.42.63.42,1.01v50.34c.02.07.03.14.03.21l-.03,50.55c0,.38-.15.74-.42,1.01l-12.1,12.1v22.28l15.73,15.73ZM36.51,251.8h-13.62c-.38,0-.74-.15-1.01-.42l-9.62-9.63c-.27-.27-.42-.63-.42-1.01v-13.61c0-.38.15-.74.42-1.01l9.62-9.63c.27-.27.63-.42,1.01-.42h13.62c.38,0,.74.15,1.01.42l9.63,9.63c.27.27.42.63.42,1.01v13.61c0,.38-.15.74-.42,1.01l-9.63,9.63c-.27.27-.63.42-1.01.42ZM23.49,248.94h12.43l8.79-8.79v-12.43l-8.79-8.79h-12.43l-8.78,8.79v12.43l8.78,8.79Z"/>
        </g>
        <g>
          <path class="cls-2" d="M242.11,96.04v-23.42l-14.37-14.36v32.6h-27.86v-32.56l-14.33,14.32v23.42l12.53,12.52v50.55h.02l-.02,50.55-12.53,12.52v23.42s0,0,0,0v.03l16.56,16.56h23.42l16.57-16.56v-23.46l-12.53-12.53v-50.55h-.02l.02-50.55,12.53-12.52ZM230.27,227.13v13.61l-9.63,9.63h-13.62l-9.62-9.63v-13.61l9.62-9.63h13.62l9.63,9.63Z"/>
          <path class="cls-1" d="M225.54,263.64h-23.42c-.38,0-.74-.15-1.01-.42l-16.56-16.56c-.2-.2-.33-.44-.39-.71-.03-.11-.04-.23-.04-.34v-23.42c0-.38.16-.74.42-1.01l12.11-12.1.02-49.73c-.01-.08-.02-.15-.02-.23v-49.96l-12.11-12.1c-.27-.27-.42-.63-.42-1.01v-23.42c0-.38.15-.74.42-1.01l14.33-14.32c.41-.41,1.02-.53,1.56-.31.53.22.88.74.88,1.32v31.12h25s0-31.17,0-31.17c0-.58.35-1.1.88-1.32.54-.21,1.15-.1,1.56.31l14.37,14.36c.27.27.42.63.42,1.01v23.42c0,.38-.15.74-.42,1.01l-12.11,12.1-.02,49.76c0,.06.01.13.01.2v49.96s12.12,12.11,12.12,12.11c.27.27.42.63.42,1.01v23.42c0,.38-.15.79-.42,1.05l-16.57,16.56c-.27.27-.63.42-1.01.42ZM202.72,260.78h22.23l15.73-15.72v-22.28l-12.11-12.11c-.27-.27-.42-.63-.42-1.01v-50.35c-.01-.06-.02-.13-.02-.2l.02-50.55c0-.38.15-.74.42-1.01l12.11-12.1v-22.24l-11.51-11.5v29.15c0,.38-.15.74-.42,1.01-.27.27-.63.42-1.01.42h-27.86c-.79,0-1.43-.64-1.43-1.43v-29.1l-11.46,11.46v22.24l12.11,12.1c.27.27.42.63.42,1.01v50.32c.01.08.02.15.02.23l-.02,50.55c0,.38-.15.74-.42,1.01l-12.11,12.1v22.27s15.73,15.73,15.73,15.73ZM220.64,251.8h-13.62c-.38,0-.74-.15-1.01-.42l-9.62-9.63c-.27-.27-.42-.63-.42-1.01v-13.61c0-.38.15-.74.42-1.01l9.62-9.63c.27-.27.63-.42,1.01-.42h13.62c.38,0,.74.15,1.01.42l9.63,9.63c.27.27.42.63.42,1.01v13.61c0,.38-.15.74-.42,1.01l-9.63,9.63c-.27.27-.63.42-1.01.42ZM207.62,248.94h12.43l8.79-8.79v-12.43l-8.79-8.79h-12.43l-8.78,8.79v12.43l8.78,8.79Z"/>
        </g>
        <path class="cls-1" d="M229.58,211.09c-.11,0-.23-.01-.34-.04l-10.82-2.62c-.64-.16-1.09-.73-1.09-1.39v-98.88c0-.79.64-1.43,1.43-1.43s1.43.64,1.43,1.43v97.76l9.72,2.35c.77.19,1.24.96,1.05,1.73-.16.66-.74,1.09-1.39,1.09Z"/>
      </g>
      <g>
        <g>
          <polygon class="cls-2" points="140.59 122.01 140.57 122.01 140.59 61.58 155.57 46.61 155.57 18.6 138.39 1.43 138.39 40.4 105.08 40.4 105.08 1.48 87.96 18.6 87.96 46.61 102.94 61.58 102.94 122.01 102.96 122.01 102.94 258.88 87.97 273.86 87.96 301.86 105.14 319.04 105.13 280.06 138.45 280.06 138.45 318.98 155.57 301.86 155.57 273.86 140.59 258.88 140.59 122.01"/>
          <path class="cls-1" d="M105.14,320.47c-.37,0-.74-.14-1.01-.42l-17.18-17.18c-.27-.27-.42-.63-.42-1.01v-28c.01-.38.16-.74.43-1.01l14.55-14.56.02-136.06c-.01-.07-.02-.14-.02-.22v-59.84s-14.57-14.55-14.57-14.55c-.27-.27-.42-.63-.42-1.01v-28.01c0-.38.15-.74.42-1.01L104.07.47c.41-.41,1.03-.53,1.56-.31.54.22.88.74.88,1.32v37.5h30.44V1.43c0-.58.35-1.1.88-1.32.54-.22,1.15-.1,1.56.31l17.18,17.17c.27.27.42.63.42,1.01v28.01c0,.38-.15.74-.42,1.01l-14.56,14.55-.02,59.63c.01.07.02.14.02.22v136.28s14.57,14.56,14.57,14.56c.27.27.42.63.42,1.01v28c0,.38-.15.74-.42,1.01l-17.12,17.12c-.41.41-1.03.53-1.56.31-.53-.22-.88-.74-.88-1.32v-37.49h-30.45s0,37.14,0,37.14c.04.13.06.26.06.4,0,.8-.62,1.52-1.46,1.43h-.03ZM89.39,301.27l14.32,14.31v-35.53c0-.38.15-.74.41-1.01.27-.27.63-.42,1.01-.42h33.31c.79,0,1.43.64,1.43,1.43v35.47l14.26-14.26v-26.82l-14.56-14.56c-.27-.27-.42-.63-.42-1.01V122.23c-.02-.07-.02-.14-.02-.21l.02-60.43c0-.38.15-.74.42-1.01l14.56-14.55v-26.82l-14.32-14.31v35.53c0,.79-.64,1.43-1.43,1.43h-33.31c-.79,0-1.43-.64-1.43-1.43V4.93l-14.26,14.26v26.82l14.56,14.55c.27.27.42.63.42,1.01v60.22c.02.07.02.14.02.21l-.02,136.87c0,.38-.15.74-.42,1.01l-14.55,14.56v26.82Z"/>
        </g>
        <path class="cls-1" d="M140.59,260.31c-.11,0-.22-.01-.34-.04l-12.93-3.13c-.64-.16-1.09-.73-1.09-1.39V61.09c0-.79.64-1.43,1.43-1.43s1.43.64,1.43,1.43v193.53l11.84,2.87c.77.19,1.24.96,1.05,1.73-.16.66-.74,1.1-1.39,1.1Z"/>
      </g>
      <path class="cls-1" d="M45.45,211.09c-.11,0-.22-.01-.34-.04l-10.82-2.62c-.64-.16-1.09-.73-1.09-1.39v-98.88c0-.79.64-1.43,1.43-1.43s1.43.64,1.43,1.43v97.76l9.73,2.35c.77.19,1.24.96,1.05,1.73-.16.66-.74,1.09-1.39,1.09Z"/>
    </g>
  </g>
</svg>