<?xml version="1.0" encoding="UTF-8"?>
<svg id="Layer_2" data-name="Layer 2" xmlns="http://www.w3.org/2000/svg" viewBox="0 0 107.23 283.41">
  <defs>
    <style>
      .cls-1 {
        fill: #a11f22;
      }

      .cls-1, .cls-2, .cls-3, .cls-4, .cls-5 {
        stroke-width: 0px;
      }

      .cls-6 {
        fill: #a01d1d;
        stroke: #231f20;
        stroke-miterlimit: 10;
      }

      .cls-3 {
        fill: #89272c;
      }

      .cls-4 {
        fill: #fff;
      }

      .cls-5 {
        fill: #a0444b;
      }
    </style>
  </defs>
  <g id="Layer_1-2" data-name="Layer 1">
    <g>
      <g>
        <path class="cls-6" d="M42.08,215.68c-12.15,5.29-20.64,17.38-20.64,31.47,0,18.96,15.37,34.33,34.33,34.33s34.33-15.37,34.33-34.33c0-14.09-8.5-26.19-20.65-31.47l2.76-126.91h-32.88l2.76,126.91ZM75.79,247.16c0,11.06-8.96,20.02-20.02,20.02s-20.02-8.96-20.02-20.02,8.96-20.02,20.02-20.02,20.02,8.97,20.02,20.02Z"/>
        <path class="cls-6" d="M55.76,282.91c-19.72,0-35.76-16.04-35.76-35.76,0-13.91,8.06-26.52,20.63-32.39l-2.74-125.97c0-.39.14-.76.41-1.03.27-.28.64-.43,1.02-.43h32.88c.38,0,.75.15,1.02.43.27.27.42.65.41,1.03l-2.74,125.97c12.56,5.87,20.62,18.48,20.62,32.39,0,19.72-16.04,35.76-35.76,35.76ZM40.78,90.2l2.73,125.45c.01.58-.33,1.11-.86,1.34-12.02,5.23-19.79,17.07-19.79,30.16,0,18.14,14.76,32.9,32.9,32.9s32.9-14.76,32.9-32.9c0-13.09-7.77-24.93-19.79-30.16-.53-.23-.87-.76-.86-1.34l2.73-125.45h-29.96ZM55.76,268.61c-11.83,0-21.45-9.62-21.45-21.46s9.62-21.46,21.45-21.46,21.46,9.62,21.46,21.46-9.62,21.46-21.46,21.46ZM55.76,228.56c-10.25,0-18.59,8.34-18.59,18.59s8.34,18.59,18.59,18.59,18.59-8.34,18.59-18.59-8.34-18.59-18.59-18.59Z"/>
      </g>
      <g>
        <path class="cls-4" d="M35.74,247.16c0,11.06,8.96,20.02,20.02,20.02s20.02-8.96,20.02-20.02-8.96-20.02-20.02-20.02-20.02,8.97-20.02,20.02Z"/>
        <path class="cls-2" d="M55.76,268.61c-11.83,0-21.45-9.62-21.45-21.46s9.62-21.46,21.45-21.46,21.46,9.62,21.46,21.46-9.62,21.46-21.46,21.46ZM55.76,228.56c-10.25,0-18.59,8.34-18.59,18.59s8.34,18.59,18.59,18.59,18.59-8.34,18.59-18.59-8.34-18.59-18.59-18.59Z"/>
      </g>
      <g>
        <polygon class="cls-1" points="105.8 21.2 105.8 1.43 1.43 1.43 1.43 21.2 10.13 21.2 97.1 21.2 105.8 21.2"/>
        <path class="cls-1" d="M105.8,22.63H1.43c-.79,0-1.43-.64-1.43-1.43V1.43C0,.64.64,0,1.43,0h104.37c.79,0,1.43.64,1.43,1.43v19.77c0,.79-.64,1.43-1.43,1.43ZM2.86,19.77h101.51V2.86H2.86v16.91Z"/>
      </g>
      <g>
        <path class="cls-3" d="M1.43,34.02v54.75h104.37v-54.75H1.43ZM53.61,49.31c6.67,0,12.09,5.41,12.09,12.09s-5.41,12.09-12.09,12.09-12.08-5.41-12.08-12.09,5.41-12.09,12.08-12.09Z"/>
        <path class="cls-3" d="M105.8,90.2H1.43c-.79,0-1.43-.64-1.43-1.43v-54.75c0-.79.64-1.43,1.43-1.43h104.37c.79,0,1.43.64,1.43,1.43v54.75c0,.79-.64,1.43-1.43,1.43ZM2.86,87.34h101.51v-51.89H2.86v51.89ZM53.61,74.91c-7.45,0-13.51-6.06-13.51-13.52s6.06-13.52,13.51-13.52,13.52,6.06,13.52,13.52-6.06,13.52-13.52,13.52ZM53.61,50.74c-5.87,0-10.65,4.78-10.65,10.65s4.78,10.66,10.65,10.66,10.66-4.78,10.66-10.66-4.78-10.65-10.66-10.65Z"/>
      </g>
      <g>
        <rect class="cls-5" x="10.13" y="21.2" width="86.97" height="12.82"/>
        <path class="cls-5" d="M97.1,35.45H10.13c-.79,0-1.43-.64-1.43-1.43v-12.82c0-.79.64-1.43,1.43-1.43h86.97c.79,0,1.43.64,1.43,1.43v12.82c0,.79-.64,1.43-1.43,1.43ZM11.56,32.59h84.11v-9.96H11.56v9.96Z"/>
      </g>
      <g>
        <path class="cls-4" d="M53.61,73.48c6.67,0,12.09-5.41,12.09-12.09s-5.41-12.09-12.09-12.09-12.08,5.41-12.08,12.09,5.41,12.09,12.08,12.09Z"/>
        <path class="cls-2" d="M53.61,74.91c-7.45,0-13.51-6.06-13.51-13.52s6.06-13.52,13.51-13.52,13.52,6.06,13.52,13.52-6.06,13.52-13.52,13.52ZM53.61,50.74c-5.87,0-10.65,4.78-10.65,10.65s4.78,10.66,10.65,10.66,10.66-4.78,10.66-10.66-4.78-10.65-10.66-10.65Z"/>
      </g>
    </g>
  </g>
</svg>