<svg  version="1.1" xmlns="http://www.w3.org/2000/svg" viewBox="0 0 22 22">

<circle cx="17" cy="18" r="1" stroke-width=".5" stroke="#333" fill="none"/>
<circle cx="17" cy="18" r="2" stroke-width=".5" stroke="#333" fill="none"/>

<polyline points="13,19 14,19, 16,21 16,22 18,22 18,21 20,19 21,19 21,17 20,17 18,15 18,14 16,14 16,15 14,17 13,17 13,19 " stroke="#333" stroke-linecap="round" fill="none" stroke-linejoin="round"/>

<polyline points="11,5 20,15  " stroke="#333" stroke-linecap="round" fill="none" stroke-linejoin="round"/>


<polyline points="1,12 12,19  " stroke="#333" stroke-linecap="round" fill="none" stroke-linejoin="round"/>



<circle cx="5" cy="7" r="2" stroke-width=".5" stroke="#333" fill="none"/>
<circle cx="5" cy="7" r="3" stroke-width=".5" stroke="#333" fill="none"/>

<polyline points="2,11 3,10, 4,11 4,12 6,12 6,11 7,10 8,11 9,10 8,9 9,8 10,8 10,6 9,6 8,5 9,4 8,3 7,4 6,3 6,2 4,2 4,3 3,4 2,3 1,4 2,5 1,6 0,6 0,8 1,8 2,9 1,10 2,11 3,10 " stroke="#333" stroke-linecap="round" fill="none" stroke-linejoin="round"/>

   <!-- The actual SVG shapes and paths go here -->
</svg>